<svg xmlns="http://www.w3.org/2000/svg" xmlns:xlink="http://www.w3.org/1999/xlink" width="121.316" height="81.84" viewBox="0 0 121.316 81.84">
  <defs>
    <clipPath id="clip-path">
      <rect id="Rectangle_23" data-name="Rectangle 23" width="121.316" height="81.84" transform="translate(0 0)" fill="none"/>
    </clipPath>
  </defs>
  <g id="Group_38" data-name="Group 38" transform="translate(0 0)">
    <path id="Path_57" data-name="Path 57" d="M23.817,33.612h73.95v45.37H23.817Zm-2.829-2.829V81.84h79.637V30.783Z" fill="#1a1a1a"/>
    <g id="Group_37" data-name="Group 37">
      <g id="Group_36" data-name="Group 36" clip-path="url(#clip-path)">
        <path id="Path_58" data-name="Path 58" d="M104.853,33.641H16.731A1.429,1.429,0,0,1,15.3,32.212V25.186a1.417,1.417,0,0,1,.744-1.25l7.622-4.109a1.38,1.38,0,0,1,.684-.178H97.261a1.386,1.386,0,0,1,.685.178l7.591,4.109a1.416,1.416,0,0,1,.745,1.25v7.026a1.43,1.43,0,0,1-1.429,1.429M18.16,30.783h85.293V26.049l-6.52-3.542H24.71l-6.58,3.542v4.734Z" fill="#1a1a1a"/>
        <path id="Path_59" data-name="Path 59" d="M104.853,26.615a1.471,1.471,0,0,1-.685-.179L60.792,3.037,17.416,26.466a1.426,1.426,0,1,1-1.369-2.5L60.108.179a1.34,1.34,0,0,1,1.339,0l44.061,23.786a1.428,1.428,0,0,1-.685,2.68Z" fill="#1a1a1a"/>
        <path id="Path_60" data-name="Path 60" d="M59.393,81.84H39.833A1.429,1.429,0,0,1,38.4,80.411V48.229A1.429,1.429,0,0,1,39.833,46.8h19.56a1.429,1.429,0,0,1,1.429,1.429V80.411a1.429,1.429,0,0,1-1.429,1.429M41.262,78.982h16.7V49.658h-16.7Z" fill="#1a1a1a"/>
        <path id="Path_61" data-name="Path 61" d="M118.637,81.84H2.948a1.429,1.429,0,0,1-1.429-1.429,1.41,1.41,0,0,1,1.429-1.429H118.667a1.429,1.429,0,0,1,1.429,1.429,1.41,1.41,0,0,1-1.429,1.429Z" fill="#1a1a1a"/>
        <path id="Path_62" data-name="Path 62" d="M85.323,64.96H70.051a1.429,1.429,0,0,1-1.429-1.429V48.259a1.429,1.429,0,0,1,1.429-1.429H85.323a1.429,1.429,0,0,1,1.429,1.429V63.531a1.429,1.429,0,0,1-1.429,1.429M71.45,62.1H83.894V49.658H71.45Z" fill="#1a1a1a"/>
        <path id="Path_63" data-name="Path 63" d="M9.08,65.377a9.08,9.08,0,1,1,9.08-9.08,9.1,9.1,0,0,1-9.08,9.08m0-15.3A6.222,6.222,0,1,0,15.3,56.3,6.238,6.238,0,0,0,9.08,50.075" fill="#1a1a1a"/>
        <path id="Path_64" data-name="Path 64" d="M9.08,81.84a1.429,1.429,0,0,1-1.429-1.429V56.3A1.429,1.429,0,0,1,9.08,54.868,1.41,1.41,0,0,1,10.509,56.3V80.411A1.429,1.429,0,0,1,9.08,81.84" fill="#1a1a1a"/>
        <path id="Path_65" data-name="Path 65" d="M112.355,65.615a8.97,8.97,0,0,1-8.961-8.961c0-4.019,3.275-16.672,8.961-16.672s8.961,12.653,8.961,16.672a8.97,8.97,0,0,1-8.961,8.961m0-22.775c-2.62,0-6.133,9.5-6.133,13.814a6.133,6.133,0,0,0,12.266,0c0-4.347-3.483-13.814-6.133-13.814" fill="#1a1a1a"/>
        <path id="Path_66" data-name="Path 66" d="M112.355,81.84a1.429,1.429,0,0,1-1.429-1.429V56.654a1.429,1.429,0,0,1,1.429-1.429,1.41,1.41,0,0,1,1.429,1.429V80.411a1.429,1.429,0,0,1-1.429,1.429" fill="#1a1a1a"/>
      </g>
    </g>
  </g>
</svg>
