<svg id="Group_31" data-name="Group 31" xmlns="http://www.w3.org/2000/svg" xmlns:xlink="http://www.w3.org/1999/xlink" width="122.672" height="109.878" viewBox="0 0 122.672 109.878">
  <defs>
    <clipPath id="clip-path">
      <rect id="Rectangle_20" data-name="Rectangle 20" width="122.672" height="109.878" transform="translate(0 0)" fill="none"/>
    </clipPath>
  </defs>
  <path id="Path_25" data-name="Path 25" d="M24.083,34.017H98.86v72.971H24.083Zm-2.86-2.89v78.751h80.5l.03-.03V31.127Z" fill="#1a1a1a"/>
  <g id="Group_30" data-name="Group 30">
    <g id="Group_29" data-name="Group 29" clip-path="url(#clip-path)">
      <path id="Path_26" data-name="Path 26" d="M106.024,34.017H16.918a1.445,1.445,0,0,1-1.445-1.445v-7.1a1.433,1.433,0,0,1,.753-1.265l7.706-4.154a1.4,1.4,0,0,1,.693-.181H98.348a1.389,1.389,0,0,1,.692.181l7.677,4.154a1.435,1.435,0,0,1,.752,1.265v7.1a1.445,1.445,0,0,1-1.445,1.445m-87.661-2.89H104.61V26.341l-6.593-3.583H24.986l-6.653,3.583v4.786Z" fill="#1a1a1a"/>
      <path id="Path_27" data-name="Path 27" d="M106.025,26.913a1.474,1.474,0,0,1-.692-.181L61.472,3.071,17.611,26.762a1.441,1.441,0,1,1-1.385-2.528L60.779.181a1.36,1.36,0,0,1,1.355,0l44.553,24.053A1.444,1.444,0,0,1,106,26.943Z" fill="#1a1a1a"/>
      <path id="Path_28" data-name="Path 28" d="M60.057,109.878H40.279a1.445,1.445,0,0,1-1.445-1.445V75.891a1.445,1.445,0,0,1,1.445-1.445H60.057A1.446,1.446,0,0,1,61.5,75.891v32.542a1.446,1.446,0,0,1-1.445,1.445m-18.333-2.89H58.612V77.336H41.724Z" fill="#1a1a1a"/>
      <path id="Path_29" data-name="Path 29" d="M119.963,109.878H2.981a1.445,1.445,0,0,1-1.445-1.445,1.426,1.426,0,0,1,1.445-1.445H119.993a1.445,1.445,0,0,1,1.445,1.445,1.426,1.426,0,0,1-1.445,1.445Z" fill="#1a1a1a"/>
      <path id="Path_30" data-name="Path 30" d="M86.277,92.809H70.834a1.445,1.445,0,0,1-1.445-1.445V75.921a1.446,1.446,0,0,1,1.445-1.445H86.277a1.446,1.446,0,0,1,1.445,1.445V91.364a1.445,1.445,0,0,1-1.445,1.445m-14.029-2.89H84.831V77.336H72.248Z" fill="#1a1a1a"/>
      <path id="Path_31" data-name="Path 31" d="M86.277,62.1H70.834a1.445,1.445,0,0,1-1.445-1.445V45.216a1.445,1.445,0,0,1,1.445-1.445H86.277a1.446,1.446,0,0,1,1.445,1.445V60.659A1.446,1.446,0,0,1,86.277,62.1m-14.029-2.89H84.831V46.631H72.248Z" fill="#1a1a1a"/>
      <path id="Path_32" data-name="Path 32" d="M55.722,62.1H40.279a1.445,1.445,0,0,1-1.445-1.445V45.216a1.445,1.445,0,0,1,1.445-1.445H55.722a1.446,1.446,0,0,1,1.445,1.445V60.659A1.446,1.446,0,0,1,55.722,62.1m-14.029-2.89H54.276V46.631H41.693Z" fill="#1a1a1a"/>
      <path id="Path_33" data-name="Path 33" d="M9.182,93.231a9.182,9.182,0,1,1,9.182-9.181,9.2,9.2,0,0,1-9.182,9.181m0-15.473a6.292,6.292,0,1,0,6.292,6.292,6.309,6.309,0,0,0-6.292-6.292" fill="#1a1a1a"/>
      <path id="Path_34" data-name="Path 34" d="M9.182,109.878a1.445,1.445,0,0,1-1.445-1.445V84.049A1.445,1.445,0,0,1,9.182,82.6a1.426,1.426,0,0,1,1.445,1.445v24.384a1.445,1.445,0,0,1-1.445,1.445" fill="#1a1a1a"/>
      <path id="Path_35" data-name="Path 35" d="M113.611,93.471a9.07,9.07,0,0,1-9.061-9.061c0-4.064,3.311-16.858,9.061-16.858s9.061,12.794,9.061,16.858a9.07,9.07,0,0,1-9.061,9.061m0-23.029c-2.649,0-6.2,9.6-6.2,13.968a6.2,6.2,0,1,0,12.4,0c0-4.4-3.522-13.968-6.2-13.968" fill="#1a1a1a"/>
      <path id="Path_36" data-name="Path 36" d="M113.611,109.878a1.445,1.445,0,0,1-1.445-1.445V84.41a1.446,1.446,0,0,1,1.445-1.445,1.427,1.427,0,0,1,1.445,1.445v24.023a1.445,1.445,0,0,1-1.445,1.445" fill="#1a1a1a"/>
    </g>
  </g>
</svg>
