<svg id="Group_40" data-name="Group 40" xmlns="http://www.w3.org/2000/svg" xmlns:xlink="http://www.w3.org/1999/xlink" width="118.577" height="102.356" viewBox="0 0 118.577 102.356">
  <defs>
    <clipPath id="clip-path">
      <rect id="Rectangle_24" data-name="Rectangle 24" width="118.577" height="102.356" fill="none"/>
    </clipPath>
  </defs>
  <g id="Group_39" data-name="Group 39" clip-path="url(#clip-path)">
    <path id="Path_67" data-name="Path 67" d="M117.152,102.356H1.425a1.425,1.425,0,0,1,0-2.85H117.152a1.425,1.425,0,1,1,0,2.85" fill="#1a1a1a"/>
    <path id="Path_68" data-name="Path 68" d="M17.673,86.265A7.576,7.576,0,0,1,10.106,78.7c0-2.669,2.54-15.807,7.567-15.807S25.24,76.029,25.24,78.7a7.577,7.577,0,0,1-7.567,7.567m0-20.912c-2.073,0-5.105,9.355-5.105,13.345a5.105,5.105,0,1,0,10.21,0c0-3.965-3.007-13.345-5.1-13.345" fill="#1a1a1a"/>
    <path id="Path_69" data-name="Path 69" d="M17.673,101.76a1.244,1.244,0,0,1-1.245-1.244v-24.9a1.244,1.244,0,0,1,1.245-1.244,1.228,1.228,0,0,1,1.244,1.244v24.9a1.245,1.245,0,0,1-1.244,1.244" fill="#1a1a1a"/>
    <path id="Path_70" data-name="Path 70" d="M102.744,101.553a1.244,1.244,0,0,1-1.244-1.244v-24.9a1.244,1.244,0,0,1,1.244-1.244,1.228,1.228,0,0,1,1.244,1.244v24.9a1.244,1.244,0,0,1-1.244,1.244" fill="#1a1a1a"/>
    <path id="Path_71" data-name="Path 71" d="M76.521,101.76H29.54a1.245,1.245,0,0,1-1.244-1.244V9.277A1.244,1.244,0,0,1,29.54,8.033H76.521a1.244,1.244,0,0,1,1.243,1.244v91.239a1.244,1.244,0,0,1-1.243,1.244M30.758,99.272H75.276V10.521H30.784V99.3Z" fill="#1a1a1a"/>
    <path id="Path_72" data-name="Path 72" d="M90,101.76H76.546a1.244,1.244,0,0,1-1.243-1.244V56.439a1.244,1.244,0,0,1,1.243-1.244H90a1.244,1.244,0,0,1,1.244,1.244v44.077A1.244,1.244,0,0,1,90,101.76M77.764,99.272H88.751V57.656H77.764Z" fill="#1a1a1a"/>
    <path id="Path_73" data-name="Path 73" d="M102.744,84.787a9.354,9.354,0,1,1,9.355-9.354,9.367,9.367,0,0,1-9.355,9.354m0-16.247a6.893,6.893,0,1,0,6.893,6.893,6.907,6.907,0,0,0-6.893-6.893" fill="#1a1a1a"/>
    <path id="Path_74" data-name="Path 74" d="M66.363,101.76H39.673a1.244,1.244,0,0,1-1.244-1.244v-5.8a1.244,1.244,0,0,1,1.244-1.244h26.69a1.245,1.245,0,0,1,1.244,1.244v5.8a1.245,1.245,0,0,1-1.244,1.244M40.916,99.272h24.2V95.955h-24.2Z" fill="#1a1a1a"/>
    <path id="Path_75" data-name="Path 75" d="M61.491,95.981H45.684a1.244,1.244,0,0,1-1.244-1.243V67.3a1.245,1.245,0,0,1,1.244-1.244H61.491A1.244,1.244,0,0,1,62.735,67.3V94.738a1.244,1.244,0,0,1-1.244,1.243M46.928,93.494H60.273V68.54H46.928Z" fill="#1a1a1a"/>
    <path id="Path_76" data-name="Path 76" d="M48.016,45.011H38.144A1.244,1.244,0,0,1,36.9,43.767V33.894a1.244,1.244,0,0,1,1.244-1.243h9.872a1.244,1.244,0,0,1,1.244,1.243v9.873a1.244,1.244,0,0,1-1.244,1.244m-8.629-2.488h7.385V35.138H39.387Z" fill="#1a1a1a"/>
    <path id="Path_77" data-name="Path 77" d="M67.917,45.011H58.045A1.244,1.244,0,0,1,56.8,43.767V33.894a1.244,1.244,0,0,1,1.244-1.243h9.872a1.244,1.244,0,0,1,1.244,1.243v9.873a1.244,1.244,0,0,1-1.244,1.244m-8.628-2.488h7.385V35.138H59.289Z" fill="#1a1a1a"/>
    <path id="Path_78" data-name="Path 78" d="M48.016,27.753H38.144A1.244,1.244,0,0,1,36.9,26.509V16.636a1.244,1.244,0,0,1,1.244-1.243h9.872a1.244,1.244,0,0,1,1.244,1.243v9.873a1.244,1.244,0,0,1-1.244,1.244m-8.629-2.488h7.385V17.88H39.387Z" fill="#1a1a1a"/>
    <path id="Path_79" data-name="Path 79" d="M67.917,27.753H58.045A1.244,1.244,0,0,1,56.8,26.509V16.636a1.244,1.244,0,0,1,1.244-1.243h9.872a1.244,1.244,0,0,1,1.244,1.243v9.873a1.244,1.244,0,0,1-1.244,1.244m-8.628-2.488h7.385V17.88H59.289Z" fill="#1a1a1a"/>
    <path id="Path_80" data-name="Path 80" d="M48.016,61.077H38.144A1.244,1.244,0,0,1,36.9,59.833V49.96a1.245,1.245,0,0,1,1.244-1.244h9.872A1.245,1.245,0,0,1,49.26,49.96v9.873a1.244,1.244,0,0,1-1.244,1.244m-8.629-2.488h7.385V51.2H39.387Z" fill="#1a1a1a"/>
    <path id="Path_81" data-name="Path 81" d="M67.917,61.077H58.045A1.244,1.244,0,0,1,56.8,59.833V49.96a1.245,1.245,0,0,1,1.244-1.244h9.872a1.245,1.245,0,0,1,1.244,1.244v9.873a1.244,1.244,0,0,1-1.244,1.244m-8.628-2.488h7.385V51.2H59.289Z" fill="#1a1a1a"/>
    <path id="Path_82" data-name="Path 82" d="M81.807,10.521H24.254A1.245,1.245,0,0,1,23.01,9.277V1.244A1.245,1.245,0,0,1,24.254,0H81.807A1.244,1.244,0,0,1,83.05,1.244V9.277a1.244,1.244,0,0,1-1.243,1.244M25.5,8.033H80.563V2.488H25.5V8.033Z" fill="#1a1a1a"/>
  </g>
</svg>
