<svg xmlns="http://www.w3.org/2000/svg" xmlns:xlink="http://www.w3.org/1999/xlink" width="118.956" height="75.501" viewBox="0 0 118.956 75.501">
  <defs>
    <clipPath id="clip-path">
      <rect id="Rectangle_21" data-name="Rectangle 21" width="118.956" height="75.501" transform="translate(0 0)" fill="none"/>
    </clipPath>
  </defs>
  <g id="Group_33" data-name="Group 33" transform="translate(5)">
    <g id="Group_32" data-name="Group 32" transform="translate(-5)" clip-path="url(#clip-path)">
      <path id="Path_37" data-name="Path 37" d="M108.2,53.878a1.423,1.423,0,0,1-1.016-.418L82.131,28.4,60.448,50.025a1.388,1.388,0,0,1-2,0L36.765,28.4,11.677,53.46a1.443,1.443,0,0,1-2.031,0L6.361,50.175a1.425,1.425,0,0,1,0-2.031L35.6,18.935a1.5,1.5,0,0,1,1.135-.418h.119a1.422,1.422,0,0,1,1.016.418L59.433,40.618,81,18.935a1.422,1.422,0,0,1,1.016-.418h.119a1.364,1.364,0,0,1,1.135.418l29.209,29.209a1.425,1.425,0,0,1,0,2.031L109.19,53.46a1.423,1.423,0,0,1-1.016.418ZM82.131,24.968a1.528,1.528,0,0,1,1.015.418L108.2,50.444l1.284-1.285L82.161,21.832l-21.683,21.8a1.48,1.48,0,0,1-2.031,0l-21.682-21.8L9.408,49.159l1.284,1.285L35.749,25.386a1.389,1.389,0,0,1,2,0L59.433,47.009l2.389-2.389L81.145,25.386a1.474,1.474,0,0,1,1.016-.418Z" fill="#1a1a1a"/>
      <path id="Path_38" data-name="Path 38" d="M104.829,75.5H14.036A1.433,1.433,0,0,1,12.6,74.068V48.98a1.421,1.421,0,0,1,.418-1.015l22.7-22.7a1.48,1.48,0,0,1,2.031,0L59.433,46.949,81.115,25.267a1.48,1.48,0,0,1,2.031,0l22.7,22.7a1.421,1.421,0,0,1,.418,1.015V74.068a1.433,1.433,0,0,1-1.433,1.433M15.47,72.634H103.4V49.578L82.132,28.313,60.448,50a1.482,1.482,0,0,1-2.031,0L36.735,28.313,15.47,49.578Z" fill="#1a1a1a"/>
      <path id="Path_39" data-name="Path 39" d="M117.492,75.5H1.433A1.434,1.434,0,0,1,0,74.067a1.415,1.415,0,0,1,1.433-1.433H117.522a1.433,1.433,0,0,1,1.433,1.433,1.415,1.415,0,0,1-1.433,1.434Z" fill="#1a1a1a"/>
      <path id="Path_40" data-name="Path 40" d="M59.433,75.5A1.434,1.434,0,0,1,58,74.067V48.98a1.434,1.434,0,0,1,1.434-1.433,1.416,1.416,0,0,1,1.434,1.433V74.067A1.435,1.435,0,0,1,59.433,75.5" fill="#1a1a1a"/>
      <path id="Path_41" data-name="Path 41" d="M42.648,75.5h-12.3a1.434,1.434,0,0,1-1.434-1.434V53.042a1.434,1.434,0,0,1,1.434-1.434h12.3a1.434,1.434,0,0,1,1.434,1.434V74.067A1.434,1.434,0,0,1,42.648,75.5M31.777,72.634h9.467V54.446H31.777Z" fill="#1a1a1a"/>
      <path id="Path_42" data-name="Path 42" d="M88.493,75.5h-12.3a1.434,1.434,0,0,1-1.434-1.434V53.042a1.435,1.435,0,0,1,1.434-1.434h12.3a1.434,1.434,0,0,1,1.433,1.434V74.067A1.434,1.434,0,0,1,88.493,75.5M77.621,72.634h9.467V54.446H77.621Z" fill="#1a1a1a"/>
      <path id="Path_43" data-name="Path 43" d="M104.829,34.913a1.434,1.434,0,0,1-1.434-1.434,1.416,1.416,0,0,1,1.434-1.433,8.654,8.654,0,0,0,8.631-8.631c0-5.944-4.6-20.518-8.631-20.518S96.2,17.471,96.2,23.415a7.9,7.9,0,0,0,.3,2.21,1.419,1.419,0,1,1-2.747.716,10.845,10.845,0,0,1-.389-2.956C93.36,18.546,97.661,0,104.829,0S116.3,18.546,116.3,23.385a11.471,11.471,0,0,1-11.468,11.468Z" fill="#1a1a1a"/>
      <path id="Path_44" data-name="Path 44" d="M104.829,38.5a1.434,1.434,0,0,1-1.434-1.434V15.53a1.434,1.434,0,0,1,1.434-1.433,1.416,1.416,0,0,1,1.434,1.433V37.063a1.435,1.435,0,0,1-1.434,1.434" fill="#1a1a1a"/>
      <path id="Path_45" data-name="Path 45" d="M104.829,25.416a1.387,1.387,0,0,1-.866-.3l-5.167-4a1.427,1.427,0,1,1,1.732-2.269l5.167,4a1.427,1.427,0,0,1,.269,2,1.459,1.459,0,0,1-1.135.567" fill="#1a1a1a"/>
    </g>
  </g>
</svg>
