<svg xmlns="http://www.w3.org/2000/svg" xmlns:xlink="http://www.w3.org/1999/xlink" width="118.956" height="85.275" viewBox="0 0 118.956 85.275">
  <defs>
    <clipPath id="clip-path">
      <rect id="Rectangle_22" data-name="Rectangle 22" width="118.956" height="85.275" transform="translate(0 0)" fill="none"/>
    </clipPath>
  </defs>
  <g id="Group_35" data-name="Group 35" transform="translate(0 0)">
    <g id="Group_34" data-name="Group 34" clip-path="url(#clip-path)">
      <path id="Path_46" data-name="Path 46" d="M87.746,85.245H31.18a1.433,1.433,0,0,1-1.433-1.433V47.435a1.391,1.391,0,0,1,.269-.836L57.97,8.908a1.418,1.418,0,0,1,2.27,0L88.881,46.6a1.446,1.446,0,0,1,.3.866V83.841a1.434,1.434,0,0,1-1.434,1.434ZM32.584,82.378H86.313V47.913L59.1,12.133,32.584,47.913Z" fill="#1a1a1a"/>
      <path id="Path_47" data-name="Path 47" d="M93.42,56.454H87.865a1.433,1.433,0,0,1-1.433-1.433V47.912L59.553,12.193,32.673,47.912v7.109a1.433,1.433,0,0,1-1.433,1.433h-5.7a1.428,1.428,0,0,1-1.433-1.4l-.09-9.437a1.41,1.41,0,0,1,.3-.9L58.448.515a1.507,1.507,0,0,1,2.269,0L94.555,44.388a1.513,1.513,0,0,1,.3.866v9.767a1.4,1.4,0,0,1-.388,1.015,1.422,1.422,0,0,1-1.016.418ZM89.3,53.587h2.718V45.732L59.582,3.711,26.939,46.061,27,53.587h2.867V47.435a1.379,1.379,0,0,1,.3-.866L58.448,9a1.466,1.466,0,0,1,2.269,0L89,46.6a1.441,1.441,0,0,1,.3.866v6.123Z" fill="#1a1a1a"/>
      <path id="Path_48" data-name="Path 48" d="M117.492,85.245H1.433a1.434,1.434,0,0,1,0-2.867H117.522a1.433,1.433,0,0,1,1.433,1.433,1.415,1.415,0,0,1-1.433,1.434Z" fill="#1a1a1a"/>
      <path id="Path_49" data-name="Path 49" d="M67.228,85.245h-15.5a1.434,1.434,0,0,1-1.434-1.433V53.617a1.434,1.434,0,0,1,1.434-1.433h15.5a1.434,1.434,0,0,1,1.434,1.433V83.812a1.434,1.434,0,0,1-1.434,1.433m-14.1-2.867H65.794V55.051H53.131Z" fill="#1a1a1a"/>
      <path id="Path_50" data-name="Path 50" d="M58.567,47.046a8.3,8.3,0,1,1,8.3-8.3,8.324,8.324,0,0,1-8.3,8.3m0-13.738A5.436,5.436,0,1,0,64,38.744a5.456,5.456,0,0,0-5.436-5.436" fill="#1a1a1a"/>
      <path id="Path_51" data-name="Path 51" d="M108,67.385a8.732,8.732,0,0,1-8.721-8.721c0-3.076,2.927-18.218,8.721-18.218s8.721,15.142,8.721,18.218A8.732,8.732,0,0,1,108,67.385m0-24.1c-2.389,0-5.884,10.782-5.884,15.381a5.884,5.884,0,0,0,11.768,0c0-4.57-3.465-15.381-5.884-15.381" fill="#1a1a1a"/>
      <path id="Path_52" data-name="Path 52" d="M108,85.245a1.434,1.434,0,0,1-1.434-1.434V55.11A1.434,1.434,0,0,1,108,53.677a1.416,1.416,0,0,1,1.434,1.433v28.7A1.435,1.435,0,0,1,108,85.245" fill="#1a1a1a"/>
      <path id="Path_53" data-name="Path 53" d="M12.424,67.385A8.732,8.732,0,0,1,3.7,58.664c0-3.076,2.927-18.218,8.721-18.218s8.721,15.142,8.721,18.218a8.732,8.732,0,0,1-8.721,8.721m0-24.1c-2.389,0-5.884,10.782-5.884,15.381a5.884,5.884,0,0,0,11.768,0c0-4.57-3.465-15.381-5.884-15.381" fill="#1a1a1a"/>
      <path id="Path_54" data-name="Path 54" d="M12.424,85.245a1.434,1.434,0,0,1-1.434-1.434V55.11a1.434,1.434,0,0,1,1.434-1.433,1.416,1.416,0,0,1,1.434,1.433v28.7a1.435,1.435,0,0,1-1.434,1.434" fill="#1a1a1a"/>
      <path id="Path_55" data-name="Path 55" d="M117.492,29.634a1.547,1.547,0,0,1-1.075-.478L99.423,9.8,84.4,27.036a1.419,1.419,0,0,1-2.151-1.852l16.1-18.457a1.448,1.448,0,0,1,2.15,0L118.567,27.3a1.444,1.444,0,0,1-.119,2,1.392,1.392,0,0,1-.926.359Z" fill="#1a1a1a"/>
      <path id="Path_56" data-name="Path 56" d="M1.434,29.634a1.389,1.389,0,0,1-.926-.358,1.392,1.392,0,0,1-.119-2L18.428,6.7a1.448,1.448,0,0,1,2.15,0l16.1,18.457a1.419,1.419,0,0,1-2.151,1.852L19.473,9.8,2.509,29.156a1.387,1.387,0,0,1-1.075.478" fill="#1a1a1a"/>
    </g>
  </g>
</svg>
