<svg id="Group_23" data-name="Group 23" xmlns="http://www.w3.org/2000/svg" xmlns:xlink="http://www.w3.org/1999/xlink" width="130.508" height="122.194" viewBox="0 0 130.508 122.194">
  <defs>
    <clipPath id="clip-path">
      <rect id="Rectangle_15" data-name="Rectangle 15" width="130.508" height="122.194" fill="none"/>
    </clipPath>
  </defs>
  <path id="Path_13" data-name="Path 13" d="M48.192,111.163H19.2V50.484l45.9-35.7,45.9,35.7v60.679H81.736" fill="none" stroke="#000" stroke-linecap="round" stroke-linejoin="round" stroke-width="4"/>
  <g id="Group_20" data-name="Group 20">
    <g id="Group_19" data-name="Group 19" clip-path="url(#clip-path)">
      <path id="Path_14" data-name="Path 14" d="M121.984,58.9,65.1,14.737,8.051,59.066,2,51.034,65.1,2l63.4,48.916Z" fill="none" stroke="#000" stroke-linecap="round" stroke-linejoin="round" stroke-width="4"/>
    </g>
  </g>
  <path id="Path_15" data-name="Path 15" d="M85.921,18.061V11.115h14.231V28.708" fill="none" stroke="#000" stroke-linecap="round" stroke-linejoin="round" stroke-width="4"/>
  <g id="Group_22" data-name="Group 22">
    <g id="Group_21" data-name="Group 21" clip-path="url(#clip-path)">
      <path id="Path_16" data-name="Path 16" d="M54.738,70.605q-.588-.345-1.158-.736A18.935,18.935,0,1,1,73.387,70.88l-2.436,1.2.207,39.05-6.223,9.064-7.884-8.568.029-2.131,5.123-5.373-4.484-5.374L62.8,94.063l-4.9-4.149,5.315-5.027L56.872,79.1l-.259-7.623Z" fill="none" stroke="#000" stroke-linecap="round" stroke-linejoin="round" stroke-width="4"/>
      <path id="Path_17" data-name="Path 17" d="M60.514,54.9a5.793,5.793,0,1,1,8.054-1.5A5.792,5.792,0,0,1,60.514,54.9Z" fill="none" stroke="#000" stroke-linecap="round" stroke-linejoin="round" stroke-width="4"/>
    </g>
  </g>
</svg>
