<svg id="Group_92" data-name="Group 92" xmlns="http://www.w3.org/2000/svg" xmlns:xlink="http://www.w3.org/1999/xlink" width="92" height="62.701" viewBox="0 0 92 62.701">
  <defs>
    <clipPath id="clip-path">
      <rect id="Rectangle_859" data-name="Rectangle 859" width="92" height="62.701" fill="none"/>
    </clipPath>
  </defs>
  <g id="Group_91" data-name="Group 91" clip-path="url(#clip-path)">
    <path id="Path_126" data-name="Path 126" d="M25.722,64.077c-1.694,0-3.96-.15-5.2-.86-1.909-1.094-2.073-3.895-2.183-8.374-.013-.525-.029-1.193-.054-1.608a98.7,98.7,0,0,0-7.579-6.718,7.168,7.168,0,0,0-4.075-1.292A6.292,6.292,0,0,1,3.015,44.09C2.36,43.537,1.653,42.61.846,38a59.845,59.845,0,0,1-.828-7.256c-.073-1.935.047-3.141.889-3.969.8-.785,2.115-1.2,4.374-1.855.587-.171,1.42-.414,1.855-.576.221-.351.563-1.011.8-1.477a24.93,24.93,0,0,1,1.242-2.215c.251-.378.557-.764.852-1.137.227-.286.588-.743.821-1.1a34.556,34.556,0,0,1-2.736-4.382,2.7,2.7,0,0,1,.11-2.409C9,10.26,10.608,9.938,12.8,9.633c2.114-.294,7.313.306,9.464.581A64.393,64.393,0,0,1,35,5.146,89.48,89.48,0,0,1,49.958,3.456h.066a2.314,2.314,0,0,1,.064,4.627A86.455,86.455,0,0,0,36.082,9.646C30.676,10.941,23.858,14.6,23.79,14.639a2.3,2.3,0,0,1-1.409.257,62.238,62.238,0,0,0-8.8-.695c.467.721.972,1.458,1.33,1.9,1.9,2.318-.144,4.9-1.244,6.292-.247.312-.479.605-.623.822-.294.443-.648,1.126-.99,1.786a10.346,10.346,0,0,1-1.843,2.872c-.67.614-1.651.919-3.63,1.5-.56.163-1.369.4-1.96.6A51.057,51.057,0,0,0,6.145,40.507c.277.044.653.082.957.114a11.5,11.5,0,0,1,6.529,2.307c1.31,1.067,3.37,2.8,5.222,4.46,3.129,2.807,3.56,3.5,3.8,4.118a10.121,10.121,0,0,1,.315,3.223,36.887,36.887,0,0,0,.3,4.56,18.558,18.558,0,0,0,4.636.028c.377-.7,1.009-2.053,1.457-3.012,2.012-4.3,2.589-5.446,3.837-5.913.978-.368,1.822-.1,3.672.469A48.465,48.465,0,0,0,50.1,53.3a46.718,46.718,0,0,0,11.542-.968c1.686-.334,2.7-.535,3.729-.135,1.552.605,2.325,2.456,3.3,4.8.273.652.663,1.587.913,2.037a13.606,13.606,0,0,0,5.017.168,78.906,78.906,0,0,0,2.927-8.577c.549-1.822.871-2.879,1.1-3.435.721-1.774,1.976-4.054,2.029-4.151a2.314,2.314,0,0,1,4.053,2.234c-.011.021-1.177,2.141-1.794,3.659-.156.383-.562,1.728-.954,3.029-2.476,8.207-3.356,10.287-4.708,11.133-1.41.881-4.03.925-5.468.874-4.2-.152-5.237-1.328-5.577-1.715a13.472,13.472,0,0,1-1.8-3.473c-.252-.6-.627-1.5-.927-2.088-.286.051-.622.118-.937.18a50.846,50.846,0,0,1-12.6,1.053A52.723,52.723,0,0,1,35.5,55.281l-.44-.136c-.467.906-1.081,2.218-1.5,3.121-1.41,3.014-1.917,4.038-2.534,4.622-.374.354-1.25,1.184-5.268,1.188Zm2.565-4.852h0" transform="translate(0 -1.376)" fill="#373737"/>
    <path id="Path_127" data-name="Path 127" d="M41.949,36.844a4.393,4.393,0,1,1-4.393-4.393,4.393,4.393,0,0,1,4.393,4.393" transform="translate(-13.211 -12.928)" fill="#373737"/>
    <path id="Path_128" data-name="Path 128" d="M106.783,0a19.849,19.849,0,1,0,19.849,19.85A19.85,19.85,0,0,0,106.783,0m3.071,16.361q1.9.334,1.9,1.585,0,1.753-2.148,1.752a22.549,22.549,0,0,1-5.88-.73q-.042.646-.042,1.96a33.335,33.335,0,0,0,.9,7.695q12.074.689,12.074,3.358,0,1.626-2.169,1.627.271,0-5-.751a101.427,101.427,0,0,0-11.657-.917,5.543,5.543,0,0,1-2.044-.292,1.182,1.182,0,0,1-.688-1.188q0-1.919,4.317-1.919h.98a59.09,59.09,0,0,1-.688-8.55V18.655h-.25a11.164,11.164,0,0,0-2.263.239q-1.158.241-1.241.24-1.46,0-1.46-1.543,0-1.605,2.148-2.127a17.917,17.917,0,0,1,3.42-.25q1.709-11.407,9.655-11.407a8.521,8.521,0,0,1,5.276,1.543,4.472,4.472,0,0,1,1.981,3.712q0,2.607-1.836,2.606a1.491,1.491,0,0,1-1.5-.876q-.4-1.022-.772-2.044-.709-1.4-3.107-1.4-4.5,0-5.651,8.279,2.877.355,5.755.73" transform="translate(-34.632)" fill="#373737"/>
  </g>
</svg>
