<svg xmlns="http://www.w3.org/2000/svg" xmlns:xlink="http://www.w3.org/1999/xlink" width="125.981" height="72.594" viewBox="0 0 125.981 72.594">
  <defs>
    <clipPath id="clip-path">
      <rect id="Rectangle_860" data-name="Rectangle 860" width="125.981" height="72.594" fill="none"/>
    </clipPath>
  </defs>
  <g id="Group_94" data-name="Group 94" transform="translate(34.99 -14)">
    <g id="Group_93" data-name="Group 93" transform="translate(-34.99 14)" clip-path="url(#clip-path)">
      <path id="Path_129" data-name="Path 129" d="M79.448,89.341a73.851,73.851,0,0,1-19.7-2.6A34.518,34.518,0,0,1,53.508,84.4c-1.494-.774-3.481-2.044-3.481-4.115a29.421,29.421,0,0,1,58.843,0c0,2.071-1.987,3.341-3.481,4.115a34.529,34.529,0,0,1-6.237,2.335,73.862,73.862,0,0,1-19.7,2.6M55.109,79.5c2.332,1.6,12.238,4.768,24.34,4.768s22.008-3.165,24.34-4.768a24.352,24.352,0,0,0-48.679,0" transform="translate(-16.47 -16.747)" fill="#373737"/>
      <path id="Path_130" data-name="Path 130" d="M92.645,37.338A2.535,2.535,0,0,1,90.11,34.8V16.709a2.535,2.535,0,1,1,5.07,0V34.8a2.535,2.535,0,0,1-2.535,2.535" transform="translate(-29.667 -4.667)" fill="#373737"/>
      <path id="Path_131" data-name="Path 131" d="M127.859,54.526a2.535,2.535,0,0,1-1.792-4.327L138.861,37.4a2.535,2.535,0,1,1,3.585,3.585L129.651,53.783a2.527,2.527,0,0,1-1.792.743" transform="translate(-41.26 -12.07)" fill="#373737"/>
      <path id="Path_132" data-name="Path 132" d="M51.151,54.526a2.527,2.527,0,0,1-1.792-.743L36.564,40.989A2.535,2.535,0,1,1,40.149,37.4L52.943,50.2a2.535,2.535,0,0,1-1.792,4.327" transform="translate(-11.794 -12.07)" fill="#373737"/>
      <path id="Path_133" data-name="Path 133" d="M69.024,34.76a2.536,2.536,0,0,1-2.366-1.623L55.21,3.447a2.535,2.535,0,0,1,4.73-1.824L71.389,31.312a2.536,2.536,0,0,1-2.364,3.448" transform="translate(-18.121 0)" fill="#373737"/>
      <path id="Path_134" data-name="Path 134" d="M111.723,35.325a2.537,2.537,0,0,1-2.342-3.5L121.514,2.407A2.535,2.535,0,1,1,126.2,4.34L114.067,33.756a2.535,2.535,0,0,1-2.344,1.569" transform="translate(-35.948 -0.276)" fill="#373737"/>
      <path id="Path_135" data-name="Path 135" d="M138.92,71.041a2.535,2.535,0,0,1-.965-4.88l29.427-12.105a2.535,2.535,0,1,1,1.928,4.688L139.883,70.85a2.532,2.532,0,0,1-.963.191" transform="translate(-44.902 -17.734)" fill="#373737"/>
      <path id="Path_136" data-name="Path 136" d="M31.95,70.982a2.524,2.524,0,0,1-.966-.193L1.568,58.654A2.535,2.535,0,0,1,3.5,53.969L32.917,66.1a2.535,2.535,0,0,1-.968,4.879" transform="translate(0 -17.705)" fill="#373737"/>
      <path id="Path_137" data-name="Path 137" d="M160.54,96.02H142.446a2.535,2.535,0,0,1,0-5.07H160.54a2.535,2.535,0,1,1,0,5.07" transform="translate(-46.063 -29.944)" fill="#373737"/>
      <path id="Path_138" data-name="Path 138" d="M33.963,96.02H15.869a2.535,2.535,0,1,1,0-5.07H33.963a2.535,2.535,0,1,1,0,5.07" transform="translate(-4.39 -29.944)" fill="#373737"/>
    </g>
  </g>
</svg>
