<svg id="Group_65" data-name="Group 65" xmlns="http://www.w3.org/2000/svg" width="56.273" height="56.273" viewBox="0 0 56.273 56.273">
  <path id="Path_97" data-name="Path 97" d="M20.957,45.743h5.55V31.214H11.978v5.55L1.646,28.86l10.332-7.9v5.55H26.506V11.977h-5.55l7.9-10.332,7.9,10.332h-5.55V26.506H45.744v-5.55l10.332,7.9-10.332,7.9v-5.55H31.214V45.743h5.55l-7.9,10.332Z" transform="translate(-0.724 -0.724)" fill="#fff"/>
  <path id="Path_98" data-name="Path 98" d="M28.137,1.843l6.77,8.85H29.931V26.342H45.579V21.366l8.85,6.77-8.85,6.771V29.93H29.931V45.579h4.976l-6.77,8.85-6.771-8.85h4.977V29.93H10.693v4.977l-8.85-6.771,8.85-6.77v4.976H26.343V10.693H21.366Zm0-1.843L19.1,11.814h6.124V25.222H11.814V19.1L0,28.136l11.814,9.038V31.051H25.223V44.459H19.1l9.038,11.814,9.037-11.814H31.051V31.051H44.459v6.123l11.814-9.038L44.459,19.1v6.123H31.051V11.814h6.123Z"/>
</svg>
