<?xml version="1.0" encoding="UTF-8"?>
<svg id="Layer_2" data-name="Layer 2" xmlns="http://www.w3.org/2000/svg" viewBox="0 0 702.43 1117.53">
  <defs>
    <style>
      .cls-1, .cls-2, .cls-3 {
        stroke-width: 0px;
      }

      .cls-2 {
        fill: #75c043;
      }

      .cls-3 {
        fill: #f2f2f2;
      }
    </style>
  </defs>
  <g id="Layer_1-2" data-name="Layer 1">
    <g>
      <g>
        <path class="cls-3" d="m687.34,351.21c0,185.63-336.12,751.22-336.12,751.22,0,0-336.12-565.59-336.12-751.22S165.58,15.09,351.21,15.09s336.12,150.49,336.12,336.12Z"/>
        <path class="cls-2" d="m351.21,1117.53c-5.32,0-10.25-2.81-12.98-7.38C324.43,1086.91,0,538.84,0,351.21S157.55,0,351.21,0s351.21,157.55,351.21,351.21-324.43,735.7-338.24,758.93c-2.72,4.58-7.65,7.38-12.98,7.38Zm0-1087.34C174.2,30.19,30.19,174.2,30.19,351.21c0,158.92,259.45,615.27,321.03,721.34,61.58-106.07,321.03-562.43,321.03-721.34,0-177.01-144.01-321.03-321.03-321.03Z"/>
      </g>
      <g>
        <path class="cls-2" d="m144.65,419.53c12.82,0,25.64,0,38.46,0,3.59,0,4.8,1.01,5.38,4.49,1.39,8.29,3.97,16.14,8.84,23.09,5.49,7.82,12.94,13.11,21.77,16.57,6.91,2.71,14.12,4.14,21.47,4.98,6.97.8,13.98.98,20.97.66,11.59-.52,22.88-2.53,33.22-8.17,7.63-4.16,13.62-9.93,16.14-18.47,2.74-9.28,2.21-18.34-3.43-26.57-3.29-4.81-7.95-8.08-13.03-10.78-7.94-4.21-16.44-6.93-25.04-9.34-16.92-4.75-34.09-8.48-51.11-12.8-14.78-3.75-29.38-8.08-43.45-14.01-11.94-5.03-23.24-11.19-33.25-19.52-15.57-12.96-25.17-29.4-28.65-49.37-.92-5.25-1.38-10.53-1.53-15.86-.38-13.17,1.18-26.06,5.27-38.6,4.86-14.91,13.11-27.69,24.64-38.31,6.75-6.22,14.27-11.37,22.4-15.63,14.35-7.54,29.66-12.14,45.57-14.93,8.71-1.53,17.49-2.48,26.33-2.98,7.04-.39,14.07-.58,21.11-.38,19.41.57,38.49,3.24,56.94,9.55,13.83,4.73,26.67,11.32,38.02,20.62,15.04,12.32,25.5,27.76,31.39,46.29,2.58,8.11,4.21,16.4,4.95,24.87.06.73.19,1.46.2,2.2.03,2.44-1.53,4.12-3.96,4.28-.45.03-.9.01-1.35.01-24.9,0-49.8,0-74.71,0-3.45,0-4.63-.97-5.3-4.33-1.68-8.43-5.26-15.93-11.22-22.16-5.92-6.18-13.22-10.11-21.37-12.55-9.3-2.79-18.84-3.38-28.45-2.89-8.59.44-16.99,2-24.89,5.61-6.29,2.87-11.76,6.77-15.63,12.66-5.8,8.85-5.71,22.33,1.63,30.35,2.92,3.19,6.39,5.61,10.18,7.61,7.54,3.99,15.63,6.52,23.81,8.79,14.6,4.06,29.46,7.05,44.2,10.55,17.82,4.24,35.49,8.99,52.49,15.93,10.88,4.44,21.26,9.82,30.73,16.83,17.32,12.82,28.56,29.63,33.2,50.74,1.43,6.49,2.17,13.06,2.5,19.7.7,14.22-.96,28.11-5.48,41.62-4.37,13.07-11.25,24.69-20.53,34.89-11.49,12.63-25.35,21.89-40.9,28.73-15.03,6.62-30.77,10.62-47.02,12.77-6.94.92-13.91,1.47-20.9,1.75-5.37.21-10.73.27-16.09.11-20.36-.59-40.48-3-60.08-8.8-17.03-5.04-32.97-12.33-47.06-23.29-11.69-9.09-21.2-20.05-28.21-33.14-6.31-11.8-10.11-24.38-11.97-37.6-.52-3.69-.82-7.4-1.12-11.11-.19-2.36,1.28-4.25,3.64-4.61.56-.09,1.14-.07,1.72-.07,12.86,0,25.72,0,38.58,0Z"/>
        <path class="cls-1" d="m466.32,173.48c42.43,0,84.86,0,127.3-.01,2.64,0,4.93.65,6.68,2.73,1.22,1.44,1.72,3.14,1.72,5,0,20.31.02,40.62,0,60.93,0,4.49-3.21,7.65-7.71,7.65-13.07.02-26.13,0-39.2,0-42.06,0-84.13,0-126.19,0-5.01,0-7.94,2.91-7.94,7.92,0,19.25,0,38.49,0,57.74,0,4.98,2.98,7.92,7.99,7.92,45.22,0,90.43,0,135.65,0,3.17,0,5.52,1.28,7.02,4.08.51.95.74,1.97.74,3.07,0,19.62,0,39.23-.01,58.85,0,4.09-3.21,7.15-7.46,7.15-30.1,0-60.21,0-90.31,0-15.11,0-30.23,0-45.34,0-5.36,0-8.27,2.92-8.27,8.29,0,41.77-.05,83.54.06,125.31.01,4.77-3.52,8.23-8.18,8.21-24.78-.09-49.56-.04-74.34-.05-4.47,0-7.52-2.62-8.03-6.83-.2-1.68-.05-1.95,1.5-2.59,13.06-5.43,25.14-12.49,35.86-21.77,16.95-14.68,28.23-32.85,33.55-54.67,1.64-6.73,2.64-13.56,3.02-20.48.75-13.62-.2-27.07-3.99-40.23-4.91-17.09-14.23-31.34-27.74-42.88-11.6-9.9-24.89-16.87-38.94-22.55-3.97-1.61-3.28-.43-3.29-4.8-.04-11.26-.01-22.52-.01-33.78,0-1.89,0-1.89,1.91-1.89,18.43,0,36.86,0,55.29,0,3.67,0,5.38-1.68,5.2-5.37-1.17-24.16-8.25-46.21-23.57-65.25-8.82-10.96-19.61-19.57-31.87-26.4-1.97-1.09-3.98-2.1-5.99-3.13-.55-.28-.98-.59-.96-1.27.04-1.51-.13-3.03.12-4.54.59-3.57,3.37-6.1,6.97-6.31.61-.04,1.23-.02,1.84-.02,42.31,0,84.62,0,126.93,0Z"/>
      </g>
    </g>
  </g>
</svg>