<?xml version="1.0" encoding="UTF-8"?>
<svg id="Layer_2" data-name="Layer 2" xmlns="http://www.w3.org/2000/svg" viewBox="0 0 116.34 185.1">
  <defs>
    <style>
      .cls-1 {
        fill: #f2f2f2;
        stroke: #75c043;
        stroke-linecap: round;
        stroke-linejoin: round;
        stroke-width: 5px;
      }

      .cls-2, .cls-3 {
        stroke-width: 0px;
      }

      .cls-3 {
        fill: #75c043;
      }
    </style>
  </defs>
  <g id="Layer_1-2" data-name="Layer 1">
    <g>
      <path class="cls-1" d="m113.84,58.17c0,30.75-55.67,124.43-55.67,124.43,0,0-55.67-93.68-55.67-124.43S27.43,2.5,58.17,2.5s55.67,24.93,55.67,55.67Z"/>
      <g>
        <path class="cls-3" d="m23.96,69.49c2.12,0,4.25,0,6.37,0,.59,0,.79.17.89.74.23,1.37.66,2.67,1.46,3.82.91,1.3,2.14,2.17,3.6,2.74,1.15.45,2.34.69,3.56.82,1.16.13,2.32.16,3.47.11,1.92-.09,3.79-.42,5.5-1.35,1.26-.69,2.26-1.65,2.67-3.06.45-1.54.37-3.04-.57-4.4-.54-.8-1.32-1.34-2.16-1.79-1.31-.7-2.72-1.15-4.15-1.55-2.8-.79-5.65-1.4-8.47-2.12-2.45-.62-4.87-1.34-7.2-2.32-1.98-.83-3.85-1.85-5.51-3.23-2.58-2.15-4.17-4.87-4.75-8.18-.15-.87-.23-1.74-.25-2.63-.06-2.18.2-4.32.87-6.39.81-2.47,2.17-4.59,4.08-6.35,1.12-1.03,2.36-1.88,3.71-2.59,2.38-1.25,4.91-2.01,7.55-2.47,1.44-.25,2.9-.41,4.36-.49,1.17-.07,2.33-.1,3.5-.06,3.22.09,6.37.54,9.43,1.58,2.29.78,4.42,1.88,6.3,3.42,2.49,2.04,4.22,4.6,5.2,7.67.43,1.34.7,2.72.82,4.12.01.12.03.24.03.36,0,.4-.25.68-.66.71-.07,0-.15,0-.22,0-4.12,0-8.25,0-12.37,0-.57,0-.77-.16-.88-.72-.28-1.4-.87-2.64-1.86-3.67-.98-1.02-2.19-1.67-3.54-2.08-1.54-.46-3.12-.56-4.71-.48-1.42.07-2.81.33-4.12.93-1.04.48-1.95,1.12-2.59,2.1-.96,1.47-.95,3.7.27,5.03.48.53,1.06.93,1.69,1.26,1.25.66,2.59,1.08,3.94,1.46,2.42.67,4.88,1.17,7.32,1.75,2.95.7,5.88,1.49,8.69,2.64,1.8.74,3.52,1.63,5.09,2.79,2.87,2.12,4.73,4.91,5.5,8.4.24,1.07.36,2.16.41,3.26.12,2.36-.16,4.66-.91,6.89-.72,2.16-1.86,4.09-3.4,5.78-1.9,2.09-4.2,3.63-6.77,4.76-2.49,1.1-5.1,1.76-7.79,2.12-1.15.15-2.3.24-3.46.29-.89.04-1.78.04-2.66.02-3.37-.1-6.7-.5-9.95-1.46-2.82-.83-5.46-2.04-7.8-3.86-1.94-1.51-3.51-3.32-4.67-5.49-1.05-1.95-1.67-4.04-1.98-6.23-.09-.61-.14-1.23-.19-1.84-.03-.39.21-.7.6-.76.09-.01.19-.01.28-.01,2.13,0,4.26,0,6.39,0Z"/>
        <path class="cls-2" d="m77.24,28.73c7.03,0,14.06,0,21.08,0,.44,0,.82.11,1.11.45.2.24.28.52.29.83,0,3.36,0,6.73,0,10.09,0,.74-.53,1.27-1.28,1.27-2.16,0-4.33,0-6.49,0-6.97,0-13.93,0-20.9,0-.83,0-1.32.48-1.32,1.31,0,3.19,0,6.38,0,9.56,0,.82.49,1.31,1.32,1.31,7.49,0,14.98,0,22.47,0,.53,0,.91.21,1.16.68.08.16.12.33.12.51,0,3.25,0,6.5,0,9.75,0,.68-.53,1.18-1.24,1.18-4.99,0-9.97,0-14.96,0-2.5,0-5.01,0-7.51,0-.89,0-1.37.48-1.37,1.37,0,6.92,0,13.84.01,20.75,0,.79-.58,1.36-1.36,1.36-4.1-.01-8.21,0-12.31,0-.74,0-1.25-.43-1.33-1.13-.03-.28,0-.32.25-.43,2.16-.9,4.16-2.07,5.94-3.61,2.81-2.43,4.68-5.44,5.56-9.05.27-1.12.44-2.25.5-3.39.12-2.26-.03-4.48-.66-6.66-.81-2.83-2.36-5.19-4.59-7.1-1.92-1.64-4.12-2.79-6.45-3.73-.66-.27-.54-.07-.54-.8,0-1.87,0-3.73,0-5.6,0-.31,0-.31.32-.31,3.05,0,6.11,0,9.16,0,.61,0,.89-.28.86-.89-.19-4-1.37-7.65-3.9-10.81-1.46-1.82-3.25-3.24-5.28-4.37-.33-.18-.66-.35-.99-.52-.09-.05-.16-.1-.16-.21,0-.25-.02-.5.02-.75.1-.59.56-1.01,1.16-1.05.1,0,.2,0,.31,0,7.01,0,14.02,0,21.02,0Z"/>
      </g>
    </g>
  </g>
</svg>