<?xml version="1.0" encoding="UTF-8"?><svg id="Layer_2" xmlns="http://www.w3.org/2000/svg" width="45.41" height="72.25" viewBox="0 0 45.41 72.25"><defs><style>.cls-1,.cls-2,.cls-3{stroke-width:0px;}.cls-2{fill:#75c043;}.cls-3{fill:#f2f2f2;}</style></defs><g id="Layer_2-2"><g id="Layer_1-2"><path class="cls-3" d="m44.44,22.71c0,12-21.73,48.57-21.73,48.57,0,0-21.73-36.57-21.73-48.57S10.7.98,22.71.98s21.73,9.73,21.73,21.73h0Z"/><path class="cls-2" d="m22.71,72.25c-.34,0-.66-.18-.84-.48-.89-1.5-21.87-36.94-21.87-49.07S10.19,0,22.71,0s22.71,10.19,22.71,22.71-20.97,47.56-21.87,49.07c-.18.3-.49.48-.84.48h0ZM22.71,1.95c-11.44,0-20.75,9.31-20.75,20.75,0,10.27,16.77,39.78,20.75,46.63,3.98-6.86,20.75-36.36,20.75-46.63,0-11.44-9.31-20.75-20.75-20.75h0Z"/><path class="cls-2" d="m9.35,27.12h2.49c.23,0,.31.07.35.29.09.54.26,1.04.57,1.49.35.51.84.85,1.41,1.07.45.18.91.27,1.39.32.45.05.9.06,1.36.04.75-.03,1.48-.16,2.15-.53.49-.27.88-.64,1.04-1.19.18-.6.14-1.19-.22-1.72-.21-.31-.51-.52-.84-.7-.51-.27-1.06-.45-1.62-.6-1.09-.31-2.2-.55-3.3-.83-.96-.24-1.9-.52-2.81-.91-.77-.33-1.5-.72-2.15-1.26-1.01-.84-1.63-1.9-1.85-3.19-.06-.34-.09-.68-.1-1.03-.02-.85.08-1.68.34-2.5.31-.96.85-1.79,1.59-2.48.44-.4.92-.74,1.45-1.01.93-.49,1.92-.78,2.95-.97.56-.1,1.13-.16,1.7-.19.46-.03.91-.04,1.36-.02,1.25.04,2.49.21,3.68.62.89.31,1.72.73,2.46,1.33.97.8,1.65,1.79,2.03,2.99.17.52.27,1.06.32,1.61,0,.05.01.09.01.14,0,.16-.1.27-.26.28-.03,0-.06,0-.09,0h-4.83c-.22,0-.3-.06-.34-.28-.11-.55-.34-1.03-.73-1.43-.38-.4-.85-.65-1.38-.81-.6-.18-1.22-.22-1.84-.19-.56.03-1.1.13-1.61.36-.41.19-.76.44-1.01.82-.37.57-.37,1.44.11,1.96.19.21.41.36.66.49.49.26,1.01.42,1.54.57.94.26,1.9.46,2.86.68,1.15.27,2.29.58,3.39,1.03.7.29,1.37.63,1.99,1.09,1.12.83,1.85,1.92,2.15,3.28.09.42.14.84.16,1.27.05.92-.06,1.82-.35,2.69-.28.84-.73,1.6-1.33,2.26-.74.82-1.64,1.42-2.64,1.86-.97.43-1.99.69-3.04.83-.45.06-.9.1-1.35.11-.35.01-.69.02-1.04,0-1.32-.04-2.62-.19-3.88-.57-1.1-.33-2.13-.8-3.04-1.51-.76-.59-1.37-1.3-1.82-2.14-.41-.76-.65-1.58-.77-2.43-.03-.24-.05-.48-.07-.72-.01-.15.08-.27.24-.3.04,0,.07,0,.11,0h2.49,0Z"/><path class="cls-1" d="m30.15,11.22c2.74,0,5.49,0,8.23,0,.17,0,.32.04.43.18.08.09.11.2.11.32,0,1.31,0,2.63,0,3.94,0,.29-.21.49-.5.49-.84,0-1.69,0-2.53,0h-8.16c-.32,0-.51.19-.51.51v3.73c0,.32.19.51.52.51h8.77c.2,0,.36.08.45.26.03.06.05.13.05.2,0,1.27,0,2.54,0,3.8,0,.26-.21.46-.48.46h-8.77c-.35,0-.53.19-.53.54,0,2.7,0,5.4,0,8.1,0,.31-.23.53-.53.53-1.6,0-3.2,0-4.81,0-.29,0-.49-.17-.52-.44-.01-.11,0-.13.1-.17.84-.35,1.63-.81,2.32-1.41,1.1-.95,1.83-2.12,2.17-3.53.11-.44.17-.88.2-1.32.05-.88-.01-1.75-.26-2.6-.32-1.1-.92-2.03-1.79-2.77-.75-.64-1.61-1.09-2.52-1.46-.26-.1-.21-.03-.21-.31,0-.73,0-1.46,0-2.18q0-.12.12-.12h3.57c.24,0,.35-.11.34-.35-.08-1.56-.53-2.99-1.52-4.22-.57-.71-1.27-1.27-2.06-1.71-.13-.07-.26-.14-.39-.2-.04-.02-.06-.04-.06-.08,0-.1,0-.2,0-.29.04-.23.22-.39.45-.41.04,0,.08,0,.12,0h8.21,0Z"/></g></g></svg>