<?xml version="1.0" encoding="UTF-8"?><svg id="Layer_2" xmlns="http://www.w3.org/2000/svg" width="145.25" height="231.09" viewBox="0 0 145.25 231.09"><defs><style>.cls-1,.cls-2,.cls-3{stroke-width:0px;}.cls-2{fill:#75c043;}.cls-3{fill:#f2f2f2;}</style></defs><g id="Layer_2-2"><g id="Layer_1-2"><path class="cls-3" d="m142.13,72.62c0,38.39-69.5,155.34-69.5,155.34,0,0-69.5-116.96-69.5-155.34S34.24,3.12,72.62,3.12s69.5,31.12,69.5,69.5h0Z"/><path class="cls-2" d="m72.62,231.09c-1.1,0-2.12-.58-2.68-1.53C67.09,224.76,0,111.42,0,72.62S32.58,0,72.62,0s72.62,32.58,72.62,72.62-67.09,152.13-69.94,156.94c-.56.95-1.58,1.53-2.68,1.53h0Zm0-224.85c-36.6,0-66.38,29.78-66.38,66.38,0,32.86,53.65,127.23,66.38,149.16,12.73-21.93,66.38-116.3,66.38-149.16,0-36.6-29.78-66.38-66.38-66.38h0Z"/><path class="cls-2" d="m29.91,86.75h7.95c.74,0,.99.21,1.11.93.29,1.71.82,3.34,1.83,4.77,1.14,1.62,2.68,2.71,4.5,3.43,1.43.56,2.92.86,4.44,1.03,1.44.17,2.89.2,4.34.14,2.4-.11,4.73-.52,6.87-1.69,1.58-.86,2.82-2.05,3.34-3.82.57-1.92.46-3.79-.71-5.49-.68-.99-1.64-1.67-2.69-2.23-1.64-.87-3.4-1.43-5.18-1.93-3.5-.98-7.05-1.75-10.57-2.65-3.06-.78-6.08-1.67-8.98-2.9-2.47-1.04-4.81-2.31-6.88-4.04-3.22-2.68-5.2-6.08-5.92-10.21-.19-1.09-.29-2.18-.32-3.28-.08-2.72.24-5.39,1.09-7.98,1-3.08,2.71-5.73,5.1-7.92,1.4-1.29,2.95-2.35,4.63-3.23,2.97-1.56,6.13-2.51,9.42-3.09,1.8-.32,3.62-.51,5.44-.62,1.46-.08,2.91-.12,4.37-.08,4.01.12,7.96.67,11.77,1.97,2.86.98,5.51,2.34,7.86,4.26,3.11,2.55,5.27,5.74,6.49,9.57.53,1.68.87,3.39,1.02,5.14.01.15.04.3.04.45,0,.5-.32.85-.82.89-.09,0-.19,0-.28,0h-15.45c-.71,0-.96-.2-1.1-.9-.35-1.74-1.09-3.29-2.32-4.58-1.22-1.28-2.73-2.09-4.42-2.6-1.92-.58-3.9-.7-5.88-.6-1.78.09-3.51.41-5.15,1.16-1.3.59-2.43,1.4-3.23,2.62-1.2,1.83-1.18,4.62.34,6.28.6.66,1.32,1.16,2.11,1.57,1.56.83,3.23,1.35,4.92,1.82,3.02.84,6.09,1.46,9.14,2.18,3.68.88,7.34,1.86,10.85,3.29,2.25.92,4.4,2.03,6.35,3.48,3.58,2.65,5.91,6.13,6.87,10.49.3,1.34.45,2.7.52,4.07.14,2.94-.2,5.81-1.13,8.61-.9,2.7-2.33,5.11-4.25,7.21-2.38,2.61-5.24,4.53-8.46,5.94-3.11,1.37-6.36,2.2-9.72,2.64-1.44.19-2.88.3-4.32.36-1.11.04-2.22.06-3.33.02-4.21-.12-8.37-.62-12.42-1.82-3.52-1.04-6.82-2.55-9.73-4.82-2.42-1.88-4.38-4.15-5.83-6.85-1.3-2.44-2.09-5.04-2.48-7.78-.11-.76-.17-1.53-.23-2.3-.04-.49.26-.88.75-.95.12-.02.24-.01.36-.01h7.98,0Z"/><path class="cls-1" d="m96.43,35.87c8.77,0,17.55,0,26.32,0,.55,0,1.02.13,1.38.56.25.3.36.65.36,1.03,0,4.2,0,8.4,0,12.6,0,.93-.66,1.58-1.59,1.58-2.7,0-5.4,0-8.11,0h-26.09c-1.04,0-1.64.6-1.64,1.64v11.94c0,1.03.62,1.64,1.65,1.64h28.05c.66,0,1.14.26,1.45.84.11.2.15.41.15.63,0,4.06,0,8.11,0,12.17,0,.85-.66,1.48-1.54,1.48h-28.05c-1.11,0-1.71.6-1.71,1.71,0,8.64-.01,17.27.01,25.91,0,.99-.73,1.7-1.69,1.7-5.12-.02-10.25,0-15.37-.01-.92,0-1.56-.54-1.66-1.41-.04-.35-.01-.4.31-.54,2.7-1.12,5.2-2.58,7.42-4.5,3.51-3.04,5.84-6.79,6.94-11.3.34-1.39.55-2.8.62-4.23.16-2.82-.04-5.6-.83-8.32-1.02-3.53-2.94-6.48-5.74-8.87-2.4-2.05-5.15-3.49-8.05-4.66-.82-.33-.68-.09-.68-.99,0-2.33,0-4.66,0-6.99q0-.39.39-.39h11.43c.76,0,1.11-.35,1.08-1.11-.24-5-1.71-9.56-4.87-13.49-1.82-2.27-4.06-4.05-6.59-5.46-.41-.23-.82-.43-1.24-.65-.11-.06-.2-.12-.2-.26,0-.31-.03-.63.02-.94.12-.74.7-1.26,1.44-1.3.13,0,.25,0,.38,0h26.25,0Z"/></g></g></svg>